<svg xmlns="http://www.w3.org/2000/svg" viewBox="0 0 562.659 238.542">
  <path d="M481.444,9.41H473.1a28.909,28.909,0,0,0-24.637,28.5V83.143H434.832V37.909A28.909,28.909,0,0,0,410.2,9.41h-8.343a28.91,28.91,0,0,0-24.637,28.5V162.589a49.6,49.6,0,0,0,40.953,48.671c19.1,2.642,31.516,2.323,46.959,0a49.6,49.6,0,0,0,40.953-48.671V37.907A28.91,28.91,0,0,0,481.444,9.41Zm-71.119,135.9a7.231,7.231,0,1,1,7.23-7.23A7.23,7.23,0,0,1,410.325,145.307Zm43.043,17.024-10.088,10.09a2.31,2.31,0,0,1-3.26,0L429.927,162.33a2.3,2.3,0,0,1,3.255-3.257l8.467,8.467,8.465-8.466a2.36,2.36,0,0,1,3.255,0,2.3,2.3,0,0,1,0,3.257Zm17.357-17.024a7.231,7.231,0,1,1,7.231-7.23A7.23,7.23,0,0,1,470.725,145.307Z" fill="#161f35"/>
  <path d="M360.5,116.508c0,10.416-1.488,13.71-7.122,16.474,5.846,2.763,7.122,5.952,7.122,17.749v13.392c0,7.439,1.806,9.565,8.289,9.565h3.72v11.159h-5.739c-9.14,0-12.329-.531-15.835-2.444-4.146-2.338-5.527-6.271-5.527-16.261V151.368c0-9.565-1.807-12.222-8.4-12.754V127.349c6.59-.532,8.4-3.3,8.4-12.861v-9.352c0-9.672,1.063-13.18,4.782-15.73,3.4-2.338,6.7-2.976,16.58-2.976H372.5V97.59h-3.72c-6.483,0-8.289,2.126-8.289,9.565Z" fill="#fff"/>
  <path d="M522.578,150.731c0-11.8,1.277-14.986,7.122-17.749-5.634-2.764-7.122-6.058-7.122-16.474v-9.353c0-7.439-1.806-9.565-8.289-9.565h-3.721V86.43h5.739c10.417,0,14.031.744,17.325,3.507,3.081,2.657,4.038,6.165,4.038,15.2v9.352c0,9.566,1.807,12.329,8.4,12.861v11.265c-6.591.532-8.4,3.189-8.4,12.754v14.774c0,10.415-1.487,14.348-6.269,16.686-3.508,1.594-6.272,2.019-15.094,2.019h-5.739V173.688h3.721c6.483,0,8.289-2.126,8.289-9.565Z" fill="#fff"/>
  <circle cx="410.364" cy="137.83" r="7.173" fill="#fff" opacity="0.57"/>
  <circle cx="470.764" cy="137.83" r="7.173" fill="#fff" opacity="0.57"/>
  <g>
    <path d="M25.292,65.191V47.563H21.18V45.148h4.112V38.365h2.723v6.783h5.036v2.415H28.015V64.78c0,2,.823,3.391,2.57,3.391A3.879,3.879,0,0,0,33.36,66.99l1.027,2.056a5.581,5.581,0,0,1-4.214,1.541C26.884,70.587,25.292,68.583,25.292,65.191Z" fill="#fff"/>
    <path d="M55.665,53.062c0-4.779-2.415-6.115-6.013-6.115a10.783,10.783,0,0,0-8.068,4.266V69.97H38.912V35.692h2.672V48.9a12.576,12.576,0,0,1,8.942-4.368c5.036,0,7.812,2.363,7.812,7.965V69.97H55.665Z" fill="#fff"/>
    <path d="M65.946,38.879A2.1,2.1,0,0,1,68,36.823a2.056,2.056,0,0,1,0,4.111A2.1,2.1,0,0,1,65.946,38.879Zm.72,6.269h2.672V69.97H66.666Z" fill="#fff"/>
    <path d="M77.1,64.677a10.258,10.258,0,0,0,8.017,3.649c4.163,0,6.63-2.056,6.63-4.934,0-3.186-3.392-4.111-6.989-5.036-4.112-1.028-8.686-2.107-8.686-6.938,0-3.8,3.187-6.886,8.84-6.886a11.261,11.261,0,0,1,8.89,3.7l-1.49,1.85a9.042,9.042,0,0,0-7.4-3.289c-3.855,0-6.219,1.9-6.219,4.471,0,2.826,3.187,3.6,6.63,4.471,4.266,1.079,9.045,2.261,9.045,7.555,0,4.007-3.135,7.3-9.3,7.3-4.009,0-7.093-1.182-9.559-3.906Z" fill="#fff"/>
    <path d="M132.861,66.013a10.574,10.574,0,0,1-8.634,4.574c-6.578,0-11.1-5.037-11.1-13,0-7.863,4.522-13.053,11.1-13.053a10.608,10.608,0,0,1,8.634,4.625V35.692h2.724V69.97h-2.724Zm0-14.544a9.914,9.914,0,0,0-8.171-4.522c-5.5,0-8.685,4.625-8.685,10.638s3.186,10.586,8.685,10.586a9.956,9.956,0,0,0,8.171-4.419Z" fill="#fff"/>
    <path d="M154.448,44.532c7.555,0,11.717,6.013,11.717,13.156v.719H145.4c.257,5.4,3.854,9.867,9.661,9.867a11.023,11.023,0,0,0,8.172-3.443l1.388,1.748a12.808,12.808,0,0,1-9.714,4.008c-7.246,0-12.437-5.4-12.437-13.053C142.473,50.338,147.561,44.532,154.448,44.532ZM145.4,56.3h18.038c-.052-4.213-2.826-9.456-9.045-9.456C148.538,46.844,145.608,51.983,145.4,56.3Z" fill="#fff"/>
    <path d="M172.489,64.677a10.258,10.258,0,0,0,8.017,3.649c4.163,0,6.629-2.056,6.629-4.934,0-3.186-3.391-4.111-6.989-5.036-4.111-1.028-8.685-2.107-8.685-6.938,0-3.8,3.186-6.886,8.839-6.886a11.264,11.264,0,0,1,8.891,3.7l-1.49,1.85a9.044,9.044,0,0,0-7.4-3.289c-3.854,0-6.218,1.9-6.218,4.471,0,2.826,3.186,3.6,6.63,4.471,4.265,1.079,9.045,2.261,9.045,7.555,0,4.007-3.135,7.3-9.3,7.3-4.009,0-7.093-1.182-9.56-3.906Z" fill="#fff"/>
    <path d="M195.925,38.879a2.1,2.1,0,0,1,2.056-2.056,2.056,2.056,0,1,1,0,4.111A2.1,2.1,0,0,1,195.925,38.879Zm.72,6.269h2.672V69.97h-2.672Z" fill="#fff"/>
    <path d="M209.236,74.236c2.107,2.569,4.522,3.494,8.223,3.494,4.522,0,8.479-2.261,8.479-7.966V65.859a10.748,10.748,0,0,1-8.634,4.625c-6.578,0-11.1-4.984-11.1-12.95,0-7.863,4.522-13,11.1-13a10.608,10.608,0,0,1,8.634,4.625V45.148h2.724V69.713c0,7.606-5.139,10.331-11.2,10.331-4.163,0-6.835-.772-9.765-3.752Zm16.7-22.767a9.985,9.985,0,0,0-8.171-4.522c-5.5,0-8.685,4.574-8.685,10.587s3.186,10.535,8.685,10.535a9.984,9.984,0,0,0,8.171-4.523Z" fill="#fff"/>
    <path d="M253.692,53.216c0-4.831-2.415-6.269-6.013-6.269a10.786,10.786,0,0,0-8.068,4.266V69.97h-2.672V45.148h2.672V48.9a12.58,12.58,0,0,1,8.942-4.368c5.037,0,7.812,2.467,7.812,8.068V69.97h-2.673Z" fill="#fff"/>
    <path d="M275.228,44.532c7.555,0,11.717,6.013,11.717,13.156v.719H266.183c.257,5.4,3.855,9.867,9.661,9.867a11.023,11.023,0,0,0,8.172-3.443l1.387,1.748a12.806,12.806,0,0,1-9.713,4.008c-7.246,0-12.436-5.4-12.436-13.053C263.254,50.338,268.341,44.532,275.228,44.532ZM266.183,56.3h18.038c-.05-4.213-2.826-9.456-9.045-9.456C269.318,46.844,266.388,51.983,266.183,56.3Z" fill="#fff"/>
    <path d="M293.834,45.148h2.672v4.266c2.107-2.776,4.933-4.78,8.376-4.78v2.929a10.919,10.919,0,0,0-1.335-.1c-2.519,0-5.911,2.261-7.041,4.419V69.97h-2.672Z" fill="#fff"/>
  </g>
  <g>
    <path d="M53.53,126.916v-7.043a22.762,22.762,0,0,0-8.05-1.454c-8.5,0-13.416,6.484-13.416,17.552,0,11.181,5.03,17.329,13.975,17.329,5.59,0,10.621-1.788,16.547-5.7l5.925,9.727c-7.714,5.255-13.864,7.266-23.031,7.266-8.609,0-14.646-2.124-19.118-6.708-4.919-5.142-7.379-12.186-7.379-21.353,0-18.447,9.95-29.292,26.944-29.292a64.679,64.679,0,0,1,18.783,2.682v16.995Z" fill="#fff"/>
    <path d="M127.878,135.86c0,17.329-10.845,28.621-27.28,28.621-16.77,0-27.391-11.181-27.391-29.068,0-16.882,10.957-28.174,27.391-28.174C117.145,107.239,127.878,118.531,127.878,135.86Zm-41.59-.224c0,11.069,5.255,17.664,14.31,17.664,8.832,0,14.2-6.595,14.2-17.44s-5.368-17.441-14.2-17.441S86.288,125.015,86.288,135.636Z" fill="#fff"/>
    <path d="M176.4,156.431c-5.143,5.814-9.838,8.05-16.882,8.05-14.31,0-23.926-11.516-23.926-28.621s9.616-28.621,23.815-28.621c6.708,0,10.956,1.9,15.875,7.043V93.6H166.9V82.419h21.242v69.317h7.6v11.18H176.4ZM148.675,135.86c0,10.732,5.032,17.44,12.969,17.44,8.05,0,13.64-7.043,13.64-17.216,0-10.734-5.366-17.665-13.64-17.665C153.707,118.419,148.675,125.127,148.675,135.86Z" fill="#fff"/>
    <path d="M215.2,139.549c.782,4.7,1.229,6.261,2.683,8.162,2.683,3.8,6.373,5.589,12.075,5.589,6.372,0,11.291-1.564,18.223-5.7l5.814,9.727c-8.162,5.031-15.429,7.266-24.373,7.266-16.994,0-27.5-10.844-27.5-28.508s10.4-28.845,26.832-28.845c10.51,0,18.671,4.919,22.7,13.863,2.236,5.031,3.13,9.838,3.242,18.447Zm27.056-9.726c-1.677-7.939-6.15-11.852-13.529-11.852-7.155,0-11.627,4.026-13.416,11.852Z" fill="#fff"/>
    <path d="M263.386,144.468h10.845v7.715a52.556,52.556,0,0,0,13.751,1.788c5.815,0,9.168-2.347,9.168-6.484a4.938,4.938,0,0,0-2.571-4.248c-1.566-.9-1.566-.9-10.845-2.684-15.54-2.906-20.684-6.931-20.684-16.323a16.017,16.017,0,0,1,5.144-12.3c3.8-3.353,8.385-4.695,15.651-4.695,6.373,0,10.957.447,21.69,2.235V125.8H294.69v-7.155a58.407,58.407,0,0,0-10.845-1.006c-5.477,0-8.161,1.9-8.161,5.7,0,1.9,1.006,3.243,3.355,4.36,1.453.671,3.353,1.23,9.5,2.46,9.279,1.789,12.633,2.907,15.54,5.142,3.466,2.684,5.366,6.932,5.366,11.963,0,10.957-7.826,17.218-21.8,17.218a86.56,86.56,0,0,1-24.261-3.466Z" fill="#fff"/>
  </g>
</svg>
