<svg xmlns="http://www.w3.org/2000/svg" viewBox="0 0 521.757 178.51"><rect y="62.456" width="521.757" height="114.727" rx="5" fill="#ffd400"/><path d="M138.348,1.249h14.185c6.305,0,10,4.138,10,9.113,0,4.876-3.3,12.117-13.594,12.117h-8.275L138.1,34.1h-7Zm16.844,9.8a3.8,3.8,0,0,0-4.137-3.792h-7.043l-1.971,9.063h7.241C153.025,16.322,155.192,14.006,155.192,11.051Z" fill="#fff"/><path d="M166.961,10.313h6.255l-.738,3.152A10.827,10.827,0,0,1,180.9,9.771l-1.33,6.206a9.754,9.754,0,0,0-2.315-.3,8.382,8.382,0,0,0-5.91,2.858l-3.4,15.564H161.69Z" fill="#fff"/><path d="M194.049,9.721c7.585,0,11.821,4.631,11.821,10.837a13.933,13.933,0,0,1-13.792,14.136c-7.585,0-11.771-4.58-11.771-10.787C180.307,16.469,186.021,9.721,194.049,9.721Zm-.2,5.567c-4.236,0-7.093,4.039-7.093,8.274,0,3.448,2.068,5.566,5.566,5.566,4.187,0,7.043-3.99,7.043-8.275C199.368,17.406,197.3,15.288,193.852,15.288Z" fill="#fff"/><path d="M213.157,15.78h-3.941l1.182-5.467h3.941l.3-1.281c1.133-5.074,4.136-8.275,8.915-8.275a9.611,9.611,0,0,1,5.221,1.33L226.6,6.323a3.828,3.828,0,0,0-2.266-.64c-1.921,0-2.955,1.182-3.448,3.349l-.295,1.281h4.876l-1.232,5.467h-4.827L215.373,34.1h-6.3Z" fill="#fff"/><path d="M238.472,9.721c6.058,0,10.688,3.99,10.688,10.64a15.554,15.554,0,0,1-.492,3.842H230.985v.59c0,2.02,2.119,4.926,6.5,4.926a10.658,10.658,0,0,0,6.009-1.773l1.97,4.285a15.48,15.48,0,0,1-8.422,2.463c-7.487,0-12.315-4.039-12.315-10.689C224.729,16.273,230.542,9.721,238.472,9.721Zm5.073,9.753c0-2.364-1.675-4.777-5.467-4.777a6.792,6.792,0,0,0-6.452,5.269h11.919Z" fill="#fff"/><path d="M253.591,26.271a12.2,12.2,0,0,0,8.373,3.645c2.118,0,3.448-1.132,3.448-2.511,0-1.429-2.019-2.168-4.384-2.956-3.4-1.133-7.683-2.659-7.683-6.7,0-4.137,3.447-8.029,9.8-8.029a14.219,14.219,0,0,1,10.1,3.892l-3.152,3.94a9.924,9.924,0,0,0-7.043-3.054c-2.217,0-3.448,1.035-3.448,2.315,0,1.134,1.773,1.872,4.087,2.66,3.5,1.084,7.98,2.61,7.98,6.9,0,4.532-3.792,8.324-10.294,8.324-4.335,0-8.57-1.478-11.23-4.285Z" fill="#fff"/><path d="M277.083,26.271a12.2,12.2,0,0,0,8.373,3.645c2.118,0,3.448-1.132,3.448-2.511,0-1.429-2.019-2.168-4.383-2.956-3.4-1.133-7.684-2.659-7.684-6.7,0-4.137,3.447-8.029,9.8-8.029a14.218,14.218,0,0,1,10.1,3.892l-3.152,3.94A9.924,9.924,0,0,0,286.54,14.5c-2.217,0-3.448,1.035-3.448,2.315,0,1.134,1.773,1.872,4.088,2.66,3.5,1.084,7.979,2.61,7.979,6.9,0,4.532-3.792,8.324-10.294,8.324-4.335,0-8.57-1.478-11.23-4.285Z" fill="#fff"/><path d="M312.643,9.721c7.585,0,11.821,4.631,11.821,10.837a13.933,13.933,0,0,1-13.792,14.136c-7.585,0-11.772-4.58-11.772-10.787C298.9,16.469,304.614,9.721,312.643,9.721Zm-.2,5.567c-4.235,0-7.092,4.039-7.092,8.274,0,3.448,2.068,5.566,5.566,5.566,4.186,0,7.043-3.99,7.043-8.275C317.962,17.406,315.894,15.288,312.445,15.288Z" fill="#fff"/><path d="M331.554,10.313h6.255l-.739,3.152a10.829,10.829,0,0,1,8.423-3.694l-1.33,6.206a9.754,9.754,0,0,0-2.315-.3,8.386,8.386,0,0,0-5.911,2.858l-3.4,15.564h-6.255Z" fill="#fff"/><path d="M369.428,20.657l-3.4,3.348-2.265,10.1h-6.994L364.01,1.249H371l-3.1,14.087L382.233,1.249h9.014L374.8,16.666l10.1,17.437h-8.226Z" fill="#fff"/><path d="M89.1,127.323v11.251L54.689,119.006v-7.5L89.1,91.94v11.25L66.43,115.256Z" fill="#161f35"/><path d="M109.233,128.219c1.142,5.055,4,7.338,9.376,7.338,4.566,0,8.072-1.06,13.207-4.158l5.218,8.805c-6.6,3.914-11.984,5.544-18.67,5.544-12.963,0-21.033-8.153-21.033-21.361,0-13.126,7.745-21.278,20.3-21.278,8.479,0,14.838,4,17.691,11.088,1.468,3.669,1.875,6.6,2.038,14.022Zm16.714-8.641c-.978-4.566-3.751-6.767-8.479-6.767-4.4,0-7.093,2.2-8.235,6.767Z" fill="#161f35"/><path d="M155.3,122.92l-7.582-8.56H142.66V104.25h19.812v8.561h-2.284l3.75,5.136,3.751-5.136h-2.283V104.25h18.752v10.11H179.1l-9.132,9.7,9.049,10.354h5.626v10.11h-20.79v-9.213h2.284l-4.567-6.44-4.483,6.44h2.282v9.213H141.029v-10.11h4.485Z" fill="#161f35"/><path d="M193.208,114.36h-5.462V104.25h15.9v3.669a15.4,15.4,0,0,1,11.577-4.81c10.761,0,17.773,8.4,17.773,21.278,0,12.8-7.257,21.279-18.1,21.279A14.061,14.061,0,0,1,204.948,142v9.212h6.6v10.11H187.746V151.21h5.462Zm11.74,9.864c0,7.012,3.18,11.333,8.316,11.333,4.891,0,7.827-4.239,7.827-11.17s-2.936-11.169-7.827-11.169C208.209,113.218,204.948,117.54,204.948,124.224Z" fill="#161f35"/><path d="M243.676,95.934h-5.463V85.825h17.2v48.59h5.462v10.11H237.562v-10.11h6.114Z" fill="#161f35"/><path d="M290.065,117.294c0-3.342-1.794-4.565-6.93-4.565-3.668,0-7.337.815-12.555,2.772l-2.527-9.621a48.586,48.586,0,0,1,15.9-2.69c8.317,0,13.779,2.364,16.143,6.931,1.3,2.527,1.712,5.217,1.712,10.761v13.533h5.3v10.11H291.288v-3.669c-3.261,3.343-7.012,4.81-12.474,4.81-9.293,0-14.511-4.565-14.511-12.718,0-7.5,4.239-11.9,12.8-13.289a81.717,81.717,0,0,1,12.962-.653Zm0,10.273a52.9,52.9,0,0,0-8.642.408c-3.668.652-5.381,2.038-5.381,4.483s1.468,3.425,5.381,3.425c3.262,0,5.626-.571,7.256-1.794,1.141-.9,1.386-1.549,1.386-3.75Z" fill="#161f35"/><path d="M316.155,114.36h-5.463V104.25h17.2v30.165h5.461v10.11H310.041v-10.11h6.114Zm-.978-27.638h11.74V98.951h-11.74Z" fill="#161f35"/><path d="M342.407,114.36h-5.462V104.25h17.2v3.914c5.3-3.914,8.072-5.055,12.637-5.055,9.376,0,12.881,4.973,12.881,18.262v13.044h5.3v10.11h-21.6v-10.11h4.566v-13.7c0-4.81-1.468-7.175-4.485-7.175-2.853,0-5.87,1.631-9.294,4.892v15.979h4.973v10.11H336.945v-10.11h5.462Z" fill="#161f35"/><path d="M389.125,130.094h9.783v4.974a36.658,36.658,0,0,0,9.294,1.222c3.425,0,5.463-1.3,5.463-3.5,0-.816-.571-1.549-1.713-2.12-.9-.408-.9-.408-7.174-1.712-12.31-2.446-16.061-5.462-16.061-12.637,0-3.994,1.3-7.256,3.914-9.538,2.934-2.61,6.44-3.669,12.228-3.669,4.892,0,8.969.407,17.2,1.631v12.636h-9.784v-4.4a41.36,41.36,0,0,0-7.256-.652c-3.342,0-4.809.9-4.809,2.934,0,2.12.9,2.528,9.131,4.322,6.766,1.466,9.213,2.364,11.251,3.832,2.771,2.038,4.158,5.135,4.158,9.13,0,8.479-5.952,13.126-16.877,13.126a67.227,67.227,0,0,1-18.751-2.609Z" fill="#161f35"/><path d="M432.661,103.19V91.94l34.4,19.566v7.5l-34.4,19.568V127.323l22.665-12.067Z" fill="#161f35"/></svg>